<svg width="7" height="7" viewBox="0 0 7 7" fill="none" xmlns="http://www.w3.org/2000/svg">
<g clip-path="url(#clip0_42_1005)">
<path fill-rule="evenodd" clip-rule="evenodd" d="M2.98985 2.30263H4.05899C4.27321 2.11936 4.41163 1.82863 4.41163 1.50132C4.41163 0.946851 4.01442 0.497368 3.52442 0.497368C3.03442 0.497368 2.63721 0.946851 2.63721 1.50132C2.63721 1.82863 2.77563 2.11936 2.98985 2.30263ZM2.40225 2.30263C2.27267 2.07077 2.19767 1.79595 2.19767 1.50132C2.19767 0.672162 2.79168 0 3.52442 0C4.25716 0 4.85116 0.672162 4.85116 1.50132C4.85116 1.79595 4.77617 2.07077 4.64658 2.30263H5.60039C5.93996 2.30263 6.23702 2.56119 6.32414 2.93258L6.97493 5.70636C6.99157 5.7773 7 5.8504 7 5.92381V6.15263C7 6.62062 6.66473 7 6.25116 7H0.736198C0.329607 7 0 6.62703 0 6.16693C0 6.09477 0.00828575 6.02291 0.0246491 5.95317L0.733331 2.93258C0.820463 2.56119 1.11753 2.30263 1.4571 2.30263H2.40225Z" fill="black"/>
</g>
<defs>
<clipPath id="clip0_42_1005">
<rect width="7" height="7" fill="white"/>
</clipPath>
</defs>
</svg>
